# xmcd
#
# Track frame offsets:
#	150
#	28601
#	48441
#	56582
#	76411
#	88290
#	109843
#	130523
#	157602
#	177439
#	183400
#	199199
#	209163
#	225921
#	244117
#	268016
#	284402
#
# Disc length: 3926 seconds
#
# Revision: 0
# Processed by: cddbd v1.5.2PL0 Copyright (c) Steve Scherf et al.
# Submitted via: EZCDAudioConverter 2.1.7.1
#
DISCID=eb0f5411
DTITLE=Mr. Chop - Silver Frequencies
DYEAR=1900
DGENRE=
TTITLE0=Silver Frequencies
TTITLE1=Feathers On Fire
TTITLE2=Intermezzo 1
TTITLE3=Psychic Psych
TTITLE4=Intermezzo 2
TTITLE5=8000 Volts
TTITLE6=Intermezzo 3
TTITLE7=Outside My Door
TTITLE8=Ends And Means Dub
TTITLE9=Intermezzo 4
TTITLE10=The Zero Point
TTITLE11=Intermezzo 5
TTITLE12=Hole In The Sky
TTITLE13=Intermezzo 6
TTITLE14=Magic Box
TTITLE15=Flashbacks
TTITLE16=Intermezzo 7
EXTD=
EXTT0=
EXTT1=
EXTT2=
EXTT3=
EXTT4=
EXTT5=
EXTT6=
EXTT7=
EXTT8=
EXTT9=
EXTT10=
EXTT11=
EXTT12=
EXTT13=
EXTT14=
EXTT15=
EXTT16=
PLAYORDER=
